<?xml version="1.0" encoding="utf-8"?>
<!-- Generator: Adobe Illustrator 28.2.0, SVG Export Plug-In . SVG Version: 6.00 Build 0)  -->
<svg version="1.1" id="Camada_1" xmlns="http://www.w3.org/2000/svg" xmlns:xlink="http://www.w3.org/1999/xlink" x="0px" y="0px"
	 viewBox="0 0 500 500" style="enable-background:new 0 0 500 500;" xml:space="preserve">
<style type="text/css">
	.st0{fill:#F6921E;}
	.st1{fill:#F21414;}
	.st2{fill:#FFFFFF;}
	.st3{font-family:'Lato-Black';}
	.st4{font-size:140.8676px;}
	.st5{letter-spacing:28;}
	.st6{fill:none;}
</style>
<g>
	<path class="st0" d="M267.99,203.23l14.74,143.99c7.36,1.1,16.18,1.63,25.8,0.59l-19.07-42.3l23,41.79
		c6.73-1.02,13.79-2.83,20.96-5.77c16.05-6.59,28.58-22.33,37.66-38.19l-57.81-26.68L374,298.02c5.75-10.92,9.86-21.4,12.34-28.45
		c-56.51-7.93-104.86-42.5-104.86-42.5c56.79,30.64,107.73,33.66,107.73,33.66l11.63-5.57c28.64-18.6,35.5-63.13,35.5-63.13
		C399.93,252.63,301.68,217.56,267.99,203.23z"/>
	<path class="st1" d="M285.85,377.65l-3.12-30.43l-14.74-143.99l-3.78-36.93l-15.15,2.89v65.64l-4.33-66.36l-8.42-5.79
		c2.03-5.08,4.48-10.03,6.8-14.7c4.82-9.71,8.99-18.1,8.27-25.13c-0.56-5.42-4.5-9.62-10.81-11.51
		c-11.11-3.33-28.57,0.91-40.44,15.45c-5.94,7.28-9.12,17.06-10.72,26.85c-8.39,0.72-16.4,1.79-24.02,3.13
		c2.91-7.36,6.46-14.53,9.82-21.27c6.71-13.5,12.5-25.16,11.52-34.71c-0.73-7.13-5.97-12.67-14.38-15.19
		c-15.25-4.57-39.27,1.29-55.65,21.35c-10.18,12.47-15.8,31.7-16.7,57.17c-0.17,4.75-0.15,9.25-0.03,13.34
		c-23.65,11.23-36.29,22.03-36.29,22.03l38.95,201.25l139.94-37.51L285.85,377.65z M121.16,110.59
		c8.75-10.72,18.78-15.76,25.65-18.11c8.45-2.88,17.15-3.38,23.87-1.37c3.56,1.07,9.64,3.82,10.3,10.25
		c0.81,7.9-4.9,19.39-10.95,31.56c-3.92,7.89-8.11,16.34-11.3,25.1c-20.95,4.24-38.72,10.45-53.02,16.78
		C105.35,155.07,107.63,127.16,121.16,110.59z M104.5,204.14c-3.39,0-6.13-2.75-6.13-6.13c0-2.08,1.03-3.91,2.61-5.02
		c0.34,3.26,0.63,5.23,0.66,5.45c0.22,1.43,1.45,2.45,2.85,2.45c0.14,0,0.29-0.01,0.43-0.03c1.58-0.24,2.66-1.71,2.42-3.28
		c-0.02-0.1-0.3-2.03-0.62-5.28c2.28,0.89,3.9,3.11,3.9,5.71C110.63,201.4,107.88,204.14,104.5,204.14z M156.37,189.02
		c-3.39,0-6.13-2.75-6.13-6.13c0-2.51,1.51-4.66,3.66-5.61c-0.22,1.84-0.37,3.68-0.42,5.53c-0.05,1.59,1.21,2.92,2.8,2.97
		c1.61,0.04,2.92-1.21,2.97-2.8c0.05-1.75,0.19-3.5,0.41-5.25c1.7,1.09,2.84,2.99,2.84,5.17
		C162.5,186.27,159.75,189.02,156.37,189.02z M213.71,152.59c-6.3,0-12.41,0.21-18.35,0.59c1.51-8.47,4.3-16.7,9.24-22.75
		c10.17-12.45,25.27-16.28,34.32-13.57c2.33,0.7,6.31,2.48,6.73,6.57c0.55,5.37-3.46,13.44-7.7,21.97
		c-2.2,4.42-4.51,9.08-6.51,13.91l-9.79-6.73l10.1,145.71L213.71,152.59z M105.51,406.5l25.25,9.38l155.09-32.46l-43.28-13.71
		L105.51,406.5z"/>
	<text transform="matrix(0.9765 -0.2157 0.2157 0.9765 124.4107 334.772)" class="st2 st3 st4 st5">S</text>
	<path class="st6" d="M245.64,123.43c-0.42-4.09-4.39-5.87-6.73-6.57c-9.05-2.71-24.15,1.12-34.32,13.57
		c-4.94,6.05-7.73,14.28-9.24,22.75c5.94-0.38,12.06-0.59,18.35-0.59l18.03,145.71l-10.1-145.71l9.79,6.73
		c2-4.83,4.31-9.49,6.51-13.91C242.19,136.86,246.19,128.8,245.64,123.43z"/>
	<path class="st6" d="M180.97,101.37c-0.66-6.43-6.73-9.18-10.3-10.25c-6.72-2.01-15.42-1.52-23.87,1.37
		c-6.87,2.34-16.9,7.39-25.65,18.11c-13.53,16.56-15.8,44.48-15.45,64.22c14.3-6.33,32.07-12.55,53.02-16.78
		c3.19-8.76,7.38-17.21,11.3-25.1C176.07,120.76,181.78,109.26,180.97,101.37z"/>
</g>
</svg>
